<svg id="Layer_1" data-name="Layer 1" xmlns="http://www.w3.org/2000/svg" viewBox="0 0 3327.67 1103.72"><defs><style>.cls-1{fill:#fff;}</style></defs><title>dnn_docs_logo</title><path class="cls-1" d="M881.67,491.27a553.13,553.13,0,0,0-144.52-19.13H185.3v696.44H553.15V840.07H881.59l.08-348.8Zm39.41,12.23h0V840h336.5A553.55,553.55,0,0,0,921.08,503.5Zm348.8,375.92H921.08v144.8h0c-.14,101.42-82.43,183.71-183.93,183.71H592.64v367.93H737.15c304.78,0,551.86-247.09,551.86-551.86A551.46,551.46,0,0,0,1269.88,879.42ZM185.3,1575.86H553.15V1207.93H185.3Z" transform="translate(-185.3 -472.14)"/><rect class="cls-1" x="1527.11" y="243.63" width="69.05" height="535.39"/><path class="cls-1" d="M2502.14,972.28q0,40.35-15,69.63T2447.69,1090a163.52,163.52,0,0,1-55.32,27.77,225,225,0,0,1-62.43,8.92H2215.42V819.64h111.06a271.2,271.2,0,0,1,64.17,7.63A160.66,160.66,0,0,1,2447,852.44q24.71,17.59,39.92,47C2497,919.12,2502.14,943.36,2502.14,972.28Zm-77.25,0q0-26-8.49-43.16a72.49,72.49,0,0,0-22.59-27.33,90.66,90.66,0,0,0-32.08-14.53,158.67,158.67,0,0,0-37.12-4.32h-36.9v179.54h35.1a160.58,160.58,0,0,0,38.42-4.53,90.4,90.4,0,0,0,32.51-15c9.42-6.91,16.9-16.18,22.59-27.77S2424.89,989.4,2424.89,972.28Z" transform="translate(-185.3 -472.14)"/><path class="cls-1" d="M2871.22,971.85q0,36.46-12.59,66.61t-34.88,51.65a154.52,154.52,0,0,1-53.16,33.16q-30.75,11.76-66.83,11.72t-66.6-11.72c-20.36-7.84-38.06-18.85-52.95-33.16a150.68,150.68,0,0,1-34.88-51.65q-12.63-30.11-12.59-66.61,0-36.9,12.59-66.61c8.41-19.78,20-36.68,34.88-50.5a154.63,154.63,0,0,1,52.95-32.08c20.35-7.48,42.58-11.29,66.6-11.29s46.26,3.74,66.83,11.29,38.27,18.2,53.16,32.08a145.33,145.33,0,0,1,34.88,50.5Q2871.26,935,2871.22,971.85Zm-79.34,0a106.15,106.15,0,0,0-6.47-37.33,89.26,89.26,0,0,0-18-29.71,82.28,82.28,0,0,0-27.76-19.49,88.33,88.33,0,0,0-35.75-7.13,85.33,85.33,0,0,0-63.3,26.62,83.09,83.09,0,0,0-18,29.71,109.11,109.11,0,0,0-6.26,37.33,110.51,110.51,0,0,0,6.47,38.41,90.62,90.62,0,0,0,18,30.14,81,81,0,0,0,27.55,19.71,92.24,92.24,0,0,0,71.07,0,85,85,0,0,0,27.77-19.71,88.31,88.31,0,0,0,18.2-30.14A112.17,112.17,0,0,0,2791.88,971.85Z" transform="translate(-185.3 -472.14)"/><path class="cls-1" d="M3140.17,1121.32q-29.88,13.71-69,13.67c-23.74,0-45.6-3.88-65.74-11.72a155.31,155.31,0,0,1-52.3-33.16,152.79,152.79,0,0,1-34.67-51.44q-12.63-29.88-12.59-66c0-24.6,4.25-46.82,12.81-66.82a150.07,150.07,0,0,1,35.31-51,155.56,155.56,0,0,1,52.95-32.3,187.46,187.46,0,0,1,65.53-11.29,184,184,0,0,1,63.94,11.51q31.41,11.54,51,33.59l-50.28,50.28a61.54,61.54,0,0,0-27.33-21.22,91.28,91.28,0,0,0-34.67-6.91,87.85,87.85,0,0,0-35.75,7.13,85,85,0,0,0-28,19.7,89.14,89.14,0,0,0-18.2,29.71,105.49,105.49,0,0,0-6.48,37.55,108.53,108.53,0,0,0,6.48,38.2,89.19,89.19,0,0,0,18,29.7,79.54,79.54,0,0,0,27.55,19.28,87.73,87.73,0,0,0,35.1,6.91q22.13,0,38.63-8.71a74.59,74.59,0,0,0,26.47-22.58L3190.6,1084A146.39,146.39,0,0,1,3140.17,1121.32Z" transform="translate(-185.3 -472.14)"/><path class="cls-1" d="M3228.34,1089.91l48.15-49c28,19.52,62.61,32.91,98.55,32.91,35.61,0,52.05-11.73,52.05-27.14,0-22.7-22-28.19-57.12-40.69l-48.29-17.53c-41.09-13.28-78.58-40.08-78.58-86,0-52.23,55.31-94,135.86-94,44.6,0,89.66,14.22,123.13,41.29l-42.27,45c-26.11-15.95-49.22-24.63-85.44-24.63-27.64,0-46.39,9.74-46.39,28.16,0,19,24.85,25.91,60.41,37.25l45.36,16.35c48.54,15.48,79.2,41.23,79.2,85.73,0,52.42-51.7,97.82-143.48,97.82C3319.39,1135.45,3267.65,1119.85,3228.34,1089.91Z" transform="translate(-185.3 -472.14)"/></svg>